<?xml version="1.0" standalone="no"?><svg xmlns="http://www.w3.org/2000/svg" viewBox="0 0 1440 320"><path fill="#76C6DB" fill-opacity="0.5" d="M0,192L8.3,192C16.6,192,33,192,50,176C66.2,160,83,128,99,133.3C115.9,139,132,181,149,170.7C165.5,160,182,96,199,101.3C215.2,107,232,181,248,224C264.8,267,281,277,298,272C314.5,267,331,245,348,245.3C364.1,245,381,267,397,272C413.8,277,430,267,447,240C463.4,213,480,171,497,133.3C513.1,96,530,64,546,90.7C562.8,117,579,203,596,229.3C612.4,256,629,224,646,192C662.1,160,679,128,695,133.3C711.7,139,728,181,745,192C761.4,203,778,181,794,149.3C811,117,828,75,844,90.7C860.7,107,877,181,894,208C910.3,235,927,213,943,213.3C960,213,977,235,993,245.3C1009.7,256,1026,256,1043,266.7C1059.3,277,1076,299,1092,293.3C1109,288,1126,256,1142,202.7C1158.6,149,1175,75,1192,64C1208.3,53,1225,107,1241,138.7C1257.9,171,1274,181,1291,186.7C1307.6,192,1324,192,1341,176C1357.2,160,1374,128,1390,106.7C1406.9,85,1423,75,1432,69.3L1440,64L1440,320L1431.7,320C1423.4,320,1407,320,1390,320C1373.8,320,1357,320,1341,320C1324.1,320,1308,320,1291,320C1274.5,320,1258,320,1241,320C1224.8,320,1208,320,1192,320C1175.2,320,1159,320,1142,320C1125.5,320,1109,320,1092,320C1075.9,320,1059,320,1043,320C1026.2,320,1010,320,993,320C976.6,320,960,320,943,320C926.9,320,910,320,894,320C877.2,320,861,320,844,320C827.6,320,811,320,794,320C777.9,320,761,320,745,320C728.3,320,712,320,695,320C678.6,320,662,320,646,320C629,320,612,320,596,320C579.3,320,563,320,546,320C529.7,320,513,320,497,320C480,320,463,320,447,320C430.3,320,414,320,397,320C380.7,320,364,320,348,320C331,320,314,320,298,320C281.4,320,265,320,248,320C231.7,320,215,320,199,320C182.1,320,166,320,149,320C132.4,320,116,320,99,320C82.8,320,66,320,50,320C33.1,320,17,320,8,320L0,320Z"></path></svg>