<?xml version="1.0" encoding="utf-8"?><svg xmlns="http://www.w3.org/2000/svg" xmlns:xlink="http://www.w3.org/1999/xlink" width="1429" height="932" preserveAspectRatio="xMidYMid" viewBox="0 0 1429 932" style="z-index:1;margin-right:-2px;display:block;background-repeat-y:initial;background-repeat-x:initial;background-color:rgb(241, 242, 243);animation-play-state:paused" ><g transform="" style="animation-play-state:paused" ><linearGradient id="lg-0.6003399719451774" x1="0" x2="1" y1="0" y2="0" style="animation-play-state:paused" ><stop stop-color="#8ad046" offset="0" style="animation-play-state:paused" ></stop>

  
<stop stop-color="#456729" offset="1" style="animation-play-state:paused" ></stop></linearGradient>
<path fill="url(#lg-0.6003399719451774)" opacity="0.4" d="M 0 0 L 0 822.023 Q 119.083 822.997 238.167 782.725 T 476.333 569.945 T 714.5 607.695 T 952.667 453.217 T 1190.83 346.473 T 1429 315.938 L 1429 0 Z" style="opacity:0.4;animation-play-state:paused" ></path>
<path fill="url(#lg-0.6003399719451774)" opacity="0.4" d="M 0 0 L 0 835.218 Q 119.083 785.329 238.167 765.353 T 476.333 674.825 T 714.5 589.955 T 952.667 552.804 T 1190.83 449.448 T 1429 330.824 L 1429 0 Z" style="opacity:0.4;animation-play-state:paused" ></path>
<path fill="url(#lg-0.6003399719451774)" opacity="0.4" d="M 0 0 L 0 792.892 Q 119.083 698.73 238.167 678.579 T 476.333 699.372 T 714.5 596.023 T 952.667 505.881 T 1190.83 470.972 T 1429 397.446 L 1429 0 Z" style="opacity:0.4;animation-play-state:paused" ></path>
<path fill="url(#lg-0.6003399719451774)" opacity="0.4" d="M 0 0 L 0 773.453 Q 119.083 765.928 238.167 741.318 T 476.333 628.347 T 714.5 673.134 T 952.667 610.483 T 1190.83 517.212 T 1429 358.063 L 1429 0 Z" style="opacity:0.4;animation-play-state:paused" ></path>
<path fill="url(#lg-0.6003399719451774)" opacity="0.4" d="M 0 0 L 0 786.301 Q 119.083 817.01 238.167 798.359 T 476.333 692.049 T 714.5 659.951 T 952.667 581.266 T 1190.83 545.539 T 1429 452.409 L 1429 0 Z" style="opacity:0.4;animation-play-state:paused" ></path></g></svg>