<?xml version="1.0" standalone="no"?><svg xmlns="http://www.w3.org/2000/svg" viewBox="0 0 1440 320"><path fill="#8AD046" fill-opacity="0.5" d="M0,224L8.3,213.3C16.6,203,33,181,50,165.3C66.2,149,83,139,99,117.3C115.9,96,132,64,149,53.3C165.5,43,182,53,199,101.3C215.2,149,232,235,248,234.7C264.8,235,281,149,298,117.3C314.5,85,331,107,348,128C364.1,149,381,171,397,170.7C413.8,171,430,149,447,128C463.4,107,480,85,497,96C513.1,107,530,149,546,154.7C562.8,160,579,128,596,138.7C612.4,149,629,203,646,208C662.1,213,679,171,695,128C711.7,85,728,43,745,64C761.4,85,778,171,794,213.3C811,256,828,256,844,229.3C860.7,203,877,149,894,117.3C910.3,85,927,75,943,74.7C960,75,977,85,993,112C1009.7,139,1026,181,1043,197.3C1059.3,213,1076,203,1092,202.7C1109,203,1126,213,1142,224C1158.6,235,1175,245,1192,234.7C1208.3,224,1225,192,1241,197.3C1257.9,203,1274,245,1291,256C1307.6,267,1324,245,1341,250.7C1357.2,256,1374,288,1390,250.7C1406.9,213,1423,107,1432,53.3L1440,0L1440,320L1431.7,320C1423.4,320,1407,320,1390,320C1373.8,320,1357,320,1341,320C1324.1,320,1308,320,1291,320C1274.5,320,1258,320,1241,320C1224.8,320,1208,320,1192,320C1175.2,320,1159,320,1142,320C1125.5,320,1109,320,1092,320C1075.9,320,1059,320,1043,320C1026.2,320,1010,320,993,320C976.6,320,960,320,943,320C926.9,320,910,320,894,320C877.2,320,861,320,844,320C827.6,320,811,320,794,320C777.9,320,761,320,745,320C728.3,320,712,320,695,320C678.6,320,662,320,646,320C629,320,612,320,596,320C579.3,320,563,320,546,320C529.7,320,513,320,497,320C480,320,463,320,447,320C430.3,320,414,320,397,320C380.7,320,364,320,348,320C331,320,314,320,298,320C281.4,320,265,320,248,320C231.7,320,215,320,199,320C182.1,320,166,320,149,320C132.4,320,116,320,99,320C82.8,320,66,320,50,320C33.1,320,17,320,8,320L0,320Z"></path></svg>