<?xml version="1.0" standalone="no"?><svg xmlns="http://www.w3.org/2000/svg" viewBox="0 0 1440 320"><path fill="#BC5318" fill-opacity="0.5" d="M0,0L8.3,10.7C16.6,21,33,43,50,80C66.2,117,83,171,99,176C115.9,181,132,139,149,117.3C165.5,96,182,96,199,106.7C215.2,117,232,139,248,154.7C264.8,171,281,181,298,186.7C314.5,192,331,192,348,202.7C364.1,213,381,235,397,229.3C413.8,224,430,192,447,160C463.4,128,480,96,497,106.7C513.1,117,530,171,546,208C562.8,245,579,267,596,250.7C612.4,235,629,181,646,138.7C662.1,96,679,64,695,80C711.7,96,728,160,745,202.7C761.4,245,778,267,794,261.3C811,256,828,224,844,208C860.7,192,877,192,894,170.7C910.3,149,927,107,943,117.3C960,128,977,192,993,202.7C1009.7,213,1026,171,1043,154.7C1059.3,139,1076,149,1092,149.3C1109,149,1126,139,1142,112C1158.6,85,1175,43,1192,42.7C1208.3,43,1225,85,1241,90.7C1257.9,96,1274,64,1291,53.3C1307.6,43,1324,53,1341,80C1357.2,107,1374,149,1390,176C1406.9,203,1423,213,1432,218.7L1440,224L1440,320L1431.7,320C1423.4,320,1407,320,1390,320C1373.8,320,1357,320,1341,320C1324.1,320,1308,320,1291,320C1274.5,320,1258,320,1241,320C1224.8,320,1208,320,1192,320C1175.2,320,1159,320,1142,320C1125.5,320,1109,320,1092,320C1075.9,320,1059,320,1043,320C1026.2,320,1010,320,993,320C976.6,320,960,320,943,320C926.9,320,910,320,894,320C877.2,320,861,320,844,320C827.6,320,811,320,794,320C777.9,320,761,320,745,320C728.3,320,712,320,695,320C678.6,320,662,320,646,320C629,320,612,320,596,320C579.3,320,563,320,546,320C529.7,320,513,320,497,320C480,320,463,320,447,320C430.3,320,414,320,397,320C380.7,320,364,320,348,320C331,320,314,320,298,320C281.4,320,265,320,248,320C231.7,320,215,320,199,320C182.1,320,166,320,149,320C132.4,320,116,320,99,320C82.8,320,66,320,50,320C33.1,320,17,320,8,320L0,320Z"></path></svg>